{"title":"Scooby-Doo! And WWE: Curse of the Speed Demon (2016) 1080P WEB-","uid":15408238,"size":3380949111,"categoryP":"video","categoryS":"hd___movies","magnet":"?xt=urn:btih:dba61c13b52cb5393f7da0bc530c1dfaa67ddc8a&amp;dn=Scooby-Doo%21+And+WWE%3A+Curse+of+the+Speed+Demon+%282016%29+1080P+WEB-+&amp;tr=udp%3A%2F%2Ftracker.leechers-paradise.org%3A6969&amp;tr=udp%3A%2F%2Fzer0day.ch%3A1337&amp;tr=udp%3A%2F%2Fopen.demonii.com%3A1337&amp;tr=udp%3A%2F%2Ftracker.coppersurfer.tk%3A6969&amp;tr=udp%3A%2F%2Fexodus.desync.com%3A6969","seeders":4,"leechers":1,"uploader":"jmanwf","files":1,"time":1469529700,"description":"Storyline\r\nIt's pedal to the metal as Scooby-Doo, Shaggy and the gang team up with the superstars of WWE in this hi-octane, all-new original movie! When Scooby and Mystery Inc. visit an off-road racing competition, it's not long before strange events start to occur. A mysterious phantom racer, known only as Inferno, is causing chaos and determined to sabotage the race. It's up Scooby-Doo, Shaggy and their new driving partner, The Undertaker, to save the race and solve the mystery. Along with other WWE superstars such as Triple H, Paige and Shamus, it's time to start your engine and your appetite because Scooby-Doo and WWE are chasing down adventure and laughs just for you!\r\n\r\n\r\n\r\nVideo\r\nID                                       : 3\r\nFormat                                   : AVC\r\nFormat/Info                              : Advanced Video Codec\r\nFormat profile                           :   \r\nFormat settings, CABAC                   : Yes\r\nFormat settings, ReFrames                : 4 frames\r\nCodec ID                                 : V_MPEG4/ISO/AVC\r\nDuration                                 : 1h 20mn\r\nBit rate                                 : 5 086 Kbps\r\nWidth                                    : 1 916 pixels\r\nHeight                                   : 1 076 pixels\r\nDisplay aspect ratio                     : 16:9\r\nFrame rate mode                          : Constant\r\nFrame rate                               : 23.976 fps\r\nColor space                              : YUV\r\nChroma subsampling                       : 4:2:0\r\nBit depth                                : 8 bits\r\nScan type                                : Progressive\r\nBits/(Pixel*Frame)                       : 0.103\r\nStream size                              : 2.86 GiB (91%)\r\nLanguage                                 : English\r\nDefault                                  : Yes\r\nForced                                   : No\r\nColor range                              : Limited\r\nColor primaries                          : BT.709\r\nTransfer characteristics                 : BT.709\r\nMatrix coefficients                      : BT.709\r\n\r\nAudio #1\r\nID                                       : 1\r\nFormat                                   : AAC\r\nFormat/Info                              : Advanced Audio Codec\r\nFormat profile                           : LC\r\nCodec ID                                 : A_AAC\r\nDuration                                 : 1h 20mn\r\nBit rate                                 : 126 Kbps\r\nChannel(s)                               : 2 channels\r\nChannel positions                        : Front: L R\r\nSampling rate                            : 48.0 KHz\r\nFrame rate                               : 46.875 fps (1024 spf)\r\nCompression mode                         : Lossy\r\nStream size                              : 72.7 MiB (2%)\r\nLanguage                                 : English\r\nDefault                                  : Yes\r\nForced                                   : No\r\n\r\nAudio #2\r\nID                                       : 2\r\nFormat                                   : AC-3\r\nFormat/Info                              : Audio Coding 3\r\nMode extension                           : CM (complete main)\r\nFormat settings, Endianness              : Big\r\nCodec ID                                 : A_AC3\r\nDuration                                 : 1h 20mn\r\nBit rate mode                            : Constant\r\nBit rate                                 : 384 Kbps\r\nChannel(s)                               : 6 channels\r\nChannel positions                        : Front: L C R, Side: L R, LFE\r\nSampling rate                            : 48.0 KHz\r\nFrame rate                               : 31.250 fps (1536 spf)\r\nCompression mode                         : Lossy\r\nStream size                              : 221 MiB (7%)\r\nLanguage                                 : English\r\nDefault                                  : No\r\nForced                                   : No\r\n\r\nText\r\nID                                       : 4\r\nFormat                                   : UTF-8\r\nCodec ID                                 : S_TEXT/UTF8\r\nCodec ID/Info                            : UTF-8 Plain Text\r\nDuration                                 : 1h 18mn\r\nBit rate                                 : 118 bps\r\nCount of elements                        : 1594\r\nStream size                              : 67.7 KiB (0%)\r\nLanguage                                 : English\r\nDefault                                  : Yes\r\nForced                                   : No\r\n\r\n\r\n \nhttps://s32.postimg.org/8rh37ptf9/image.png\r\n\r\n\r\n\r\n\r\n \nhttps://s32.postimg.org/5953bbsj9/image.jpg\r\n\r\n\r\n\r\n\r\n \nhttps://s32.postimg.org/e5fvf9j5h/image.jpg\r\n\r\n\r\n\r\n\r\n \nhttp://www.imdb.com/title/tt5843946/","torrent":{"xt":"urn:btih:dba61c13b52cb5393f7da0bc530c1dfaa67ddc8a","amp;dn":"Scooby-Doo%21+And+WWE%3A+Curse+of+the+Speed+Demon+%282016%29+1080P+WEB-+","amp;tr":["udp%3A%2F%2Ftracker.leechers-paradise.org%3A6969","udp%3A%2F%2Fzer0day.ch%3A1337","udp%3A%2F%2Fopen.demonii.com%3A1337","udp%3A%2F%2Ftracker.coppersurfer.tk%3A6969","udp%3A%2F%2Fexodus.desync.com%3A6969"],"infoHash":"dba61c13b52cb5393f7da0bc530c1dfaa67ddc8a","infoHashBuffer":{"type":"Buffer","data":[219,166,28,19,181,44,181,57,63,125,160,188,83,12,29,250,166,125,220,138]},"announce":[],"urlList":[]}}